**ABCDEFGHIJKLMNOPQRSTUVWXYZabcdefghijklmnopqrstuvwxyz**************************
**PARASOLID !"#$%&'()*+,-./:;<=>?@[\]^_`{|}~0123456789**************************
**PART1;
MC=;
MC_MODEL=;
MC_ID=unknown;
OS=Windows;
OS_RELEASE=;
FRU=;
APPL=Autodesk Inventor 2020;
SITE=unknown;
USER=unknown;
FORMAT=text;
GUISE=transmit;
KEY=alpha-i;
FILE=C:\Users\jonny\Downloads\alpha-i.x_t;
DATE=2020-Nov-28 16:10:49;
**PART2;
SCH=SCH_3100154_31001;
USFLD_SIZE=0;
**PART3;
**END_OF_HEADER*****************************************************************
T51 : TRANSMIT FILE created by modeller version 310015417 SCH_3100154_310010 12
 1 205 2 3 0 0 0 0 0 0 1e3 1e-8 0 0 0 1 0 1 1 4 5 6 7 0 0 8 9 10 0 0 0 0 0 0 0 8
1 1 2 205 11 1 12 0 0 0 13 70 3 0 4 T1 0 0 6 20 1 14 14 13 4 94 0 1 0 15 0 0 16
 0 50 5 148 0 15 17 0 0 +0 .02550946026524005 -.08 0 0 -1 -1 0 0 31 6 130 0 9 18
 0 0 +0 0 -.0015 0 0 -1 1 0 0 .0200042423858952 29 7 112 0 10 19 0 0 .0200042423
858952 -.0015 19 8 1 0 1 16 0 20 V0 16 9 84 0 ?21 0 22 6 0 0 1 18 10 85 0 21 0 2
3 7 ?1 17 21 0 24 21 21 10 25 9 0 25 +18 23 80 0 26 10 27 19 ?1 17 26 0 28 26 26
 23 29 22 0 29 +18 27 75 0 30 23 31 32 ?1 29 19 111 0 23 32 7 0 .020004242385895
2 0 29 32 110 0 27 33 19 0 .0175042423858952 0 29 33 109 0 31 34 32 0 .017504242
3858952 -75e-5 18 31 70 0 35 27 36 33 ?1 29 34 108 0 36 37 33 0 .016504242385895
2 -75e-5 18 36 65 0 38 31 39 34 ?1 29 37 107 0 39 40 34 0 .0165042423858952 0 18
 39 60 0 41 36 42 37 ?1 29 40 106 0 42 43 37 0 .015875 -.0015 18 42 55 0 44 39 4
5 40 ?1 29 43 105 0 45 46 40 972063396823211e-33 .015875 -.0168675979041008 18 4
5 50 0 47 42 48 43 ?1 29 46 104 0 48 49 43 0 .0260707521640767 -.08 18 48 45 0 5
0 45 51 46 ?1 29 49 103 0 51 52 46 -2633036643889845e-33 .01433358388569976 -.02
34907783932301 18 51 40 0 53 48 54 49 ?1 29 52 102 0 54 55 49 -1893283524029085e
-33 .0103065554647934 -.04083423193340065 18 54 36 0 56 51 57 52 ?1 29 55 101 0
 57 58 52 649933055336173e-33 .0106142122902486 -.0297449295980487 18 57 33 0 59
 54 60 55 ?1 29 58 100 0 60 61 55 0 .02550946026524005 -.08 18 60 28 0 62 57 63
 58 ?1 29 61 99 0 63 64 58 573679626700202e-33 .00936889929569276 -.041089537193
4974 18 63 23 0 65 60 66 61 ?1 29 64 98 0 66 67 61 0 .0150042423858952 0 18 66 1
8 0 68 63 69 64 ?1 29 67 97 0 69 70 64 -1767777441338015e-33 .00962333217255679
 -.02963313375266105 18 69 13 0 71 66 72 67 ?1 29 70 96 0 72 73 67 -275623461172
764e-32 .0150042423858952 -.01791493450200695 18 72 9 0 74 69 75 70 ?1 29 73 95
 0 75 0 70 860671233923747e-33 .0140558279256187 -.02216567552176675 18 75 6 0 7
6 72 0 73 ?1 17 76 0 77 76 76 75 78 79 0 78 +15 77 4 0 76 80 0 17 78 0 81 78 78
 75 76 79 0 0 -16 79 5 0 ?76 82 0 83 0 0 1 16 82 8 0 ?74 84 79 85 0 0 1 31 83 11
3 0 79 0 85 0 +0 0 -.02216567552176675 0 0 -1 612323399573676e-31 -1 0 .01405582
79256187 31 85 114 0 82 83 86 0 +0 0 -.01791493450200695 0 0 1 612323399573677e-
31 -1 0 .0150042423858952 31 86 115 0 84 85 87 0 +0 0 -.02963313375266105 0 0 1
 612323399573677e-31 -1 0 .00962333217255679 16 84 12 0 ?71 88 82 86 0 0 1 31 87
 116 0 88 86 89 0 +0 0 0 0 0 -1 1 0 0 .0150042423858952 16 88 17 0 ?68 90 84 87
 0 0 1 31 89 117 0 90 87 91 0 +0 0 -.0410895371934974 0 0 -1 612323399573676e-31
 -1 0 .00936889929569276 16 90 22 0 ?65 92 88 89 0 0 1 31 91 118 0 92 89 93 0 +0
 0 -.08 0 0 -1 1 0 0 .02550946026524005 16 92 27 0 ?62 94 90 91 0 0 1 31 93 119
 0 94 91 95 0 +0 0 -.0297449295980487 0 0 -1 612323399573676e-31 -1 0 .010614212
2902486 16 94 32 0 ?59 96 92 93 0 0 1 31 95 120 0 96 93 97 0 +0 0 -.040834231933
40065 0 0 1 612323399573676e-31 -1 0 .0103065554647934 16 96 35 0 ?56 98 94 95 0
 0 1 31 97 121 0 98 95 99 0 +0 0 -.0234907783932301 0 0 1 612323399573677e-31 -1
 0 .01433358388569976 16 98 39 0 ?53 100 96 97 0 0 1 31 99 122 0 100 97 101 0 +0
 0 -.08 0 0 -1 1 0 0 .0260707521640767 16 100 44 0 ?50 102 98 99 0 0 1 31 101 12
3 0 102 99 103 0 +0 0 -.0168675979041008 0 0 -1 612323399573677e-31 -1 0 .015875
 16 102 49 0 ?47 104 100 101 0 0 1 31 103 124 0 104 101 105 0 +0 0 -.0015 0 0 -1
 1 0 0 .015875 16 104 54 0 ?44 106 102 103 0 0 1 31 105 125 0 106 103 107 0 +0 0
 0 0 0 -1 1 0 0 .0165042423858952 16 106 59 0 ?41 108 104 105 0 0 1 31 107 126 0
 108 105 109 0 +0 0 -75e-5 0 0 -1 1 0 0 .0165042423858952 16 108 64 0 ?38 110 10
6 107 0 0 1 31 109 127 0 110 107 111 0 +0 0 -75e-5 0 0 -1 1 0 0 .017504242385895
2 16 110 69 0 ?35 112 108 109 0 0 1 31 111 128 0 112 109 18 0 +0 0 0 0 0 -1 1 0
 0 .0175042423858952 16 112 74 0 ?30 22 110 111 0 0 1 31 18 129 0 22 111 6 0 +0
 0 0 0 0 -1 1 0 0 .0200042423858952 16 22 79 0 ?26 9 112 18 0 0 1 17 30 0 113 30
 30 27 114 112 0 114 +15 113 81 0 30 115 116 17 114 0 117 114 114 27 30 112 0 0
 -15 117 73 0 114 118 0 14 118 72 119 ?120 115 121 4 122 -0 0 120 115 20 81 1 11
9 192 123 118 124 0 125 126 127 14 120 67 125 ?128 118 129 4 130 +0 0 128 118 20
 14 115 77 126 ?118 131 113 4 132 +0 0 118 131 20 15 121 76 0 35 118 117 51 122
 144 0 118 130 132 0 +0 0 -375e-6 0 0 1 .0175042423858952 0 1 0 13 20 2 0 0 0 0
 0 0 8 15 14 15 90 133 ?134 0 135 4 5 +0 0 134 0 20 81 1 133 204 123 15 136 0 13
7 0 138 14 134 87 137 ?131 15 139 4 17 +0 0 131 15 20 15 135 92 0 140 15 141 17
 140 0 135 140 140 60 62 92 0 0 -15 141 91 0 50 15 0 17 50 0 141 50 50 48 142 10
0 0 142 +17 142 0 143 142 142 48 50 100 0 0 -15 143 43 0 142 144 0 14 144 42 145
 ?146 147 148 4 149 +0 0 146 147 20 81 1 145 174 123 144 150 0 151 152 153 14 14
6 37 151 ?154 144 155 4 156 +0 0 154 144 20 14 147 47 152 ?144 157 158 4 159 +0
 0 144 157 20 15 148 46 0 160 144 143 54 149 138 0 144 156 159 0 +0 0 -.10433552
30244646 0 0 -1 -.0909255736651734 .1195004516243276 -1 0 0 54 156 137 0 146 161
 149 0 +0 0 -.003184994999628355 0 0 -1 -.02692862988247205 .0459879889131736 -1
 0 0 54 159 139 0 147 149 162 0 +0 0 -.0168675979041008 0 0 -1 875e-6 .015 -1 0
 0 51 162 140 0 157 159 163 0 +0 0 -.01075 0 0 -1 .015875 0 1 0 14 157 52 164 ?1
47 165 166 4 162 +0 0 147 165 20 50 163 141 0 165 162 167 0 +0 .0165042423858952
 0 0 0 1 1 0 0 14 165 57 168 ?157 128 169 4 163 +0 0 157 128 20 51 167 142 0 128
 163 130 0 +0 0 -375e-6 0 0 -1 .0165042423858952 0 1 0 14 128 62 170 ?165 120 17
1 4 167 +0 0 165 120 20 50 130 143 0 120 167 122 0 +0 .0175042423858952 -75e-5 0
 0 1 1 0 0 81 1 170 186 123 128 172 0 168 125 173 15 171 66 0 41 128 174 17 41 0
 171 41 41 39 175 106 0 175 +15 174 63 0 176 128 0 17 176 0 174 176 176 36 38 10
8 0 0 -17 38 0 129 38 38 36 176 108 0 176 +15 129 71 0 38 120 177 15 177 68 0 17
8 120 0 17 178 0 177 178 178 31 35 110 0 0 -17 35 0 121 35 35 31 178 110 0 178 +
17 175 0 179 175 175 39 41 106 0 0 -15 179 58 0 175 165 0 80 1 123 180 181 8015
 0 0 0 0 3 5 0 0 0 FFFFTFFFFFFFFF2 81 2 172 185 180 128 182 170 183 184 185 186
 81 1 168 183 123 165 183 0 164 170 187 81 1 125 189 123 120 184 0 170 119 188 8
3 1 173 0 81 2 184 188 180 120 189 125 172 124 190 191 83 1 188 0 80 2 180 192 1
93 8014 0 0 0 0 3 5 0 0 0 FFFFTFFFFFFFFF2 1 81 1 189 187 194 120 0 184 182 195 1
96 81 2 124 191 180 118 195 119 184 197 198 199 83 4 190 .72944252070442 0 .7294
4252070442 .72944252070442 82 1 191 1 81 1 195 190 194 118 0 124 189 200 201 81
 2 197 194 180 115 200 126 124 202 203 204 83 4 198 .72944252070442 0 .729442520
70442 .72944252070442 82 1 199 1 81 1 200 193 194 115 0 197 195 205 206 81 1 126
 195 123 115 197 0 119 207 208 81 2 202 197 180 131 205 207 197 209 210 211 83 4
 203 .72944252070442 0 .72944252070442 .72944252070442 82 1 204 1 14 131 82 207
 ?115 134 28 4 212 +0 0 115 134 20 81 1 205 196 194 131 0 202 200 213 214 81 1 2
07 198 123 131 202 0 126 137 215 81 2 209 200 180 134 213 137 202 136 216 217 83
 4 210 .72944252070442 0 .72944252070442 .72944252070442 82 1 211 1 81 1 213 199
 194 134 0 209 205 218 219 81 1 137 201 123 134 209 0 207 133 220 81 2 136 203 1
80 15 218 133 209 0 221 222 83 4 216 .72944252070442 0 .72944252070442 .72944252
070442 82 1 217 1 81 1 218 202 194 15 0 136 213 0 223 83 4 221 .72944252070442 0
 .72944252070442 .72944252070442 82 1 222 1 80 1 194 0 224 8001 0 0 0 0 3 5 0 0
 0 FFFFTFTFFFFFFF2 83 3 223 .745098039215686 .737254901960784 .729411764705882 7
9 15 224 SDL/TYSA_COLOUR83 1 220 0 83 3 219 .745098039215686 .737254901960784 .7
29411764705882 83 1 215 0 83 3 214 .745098039215686 .737254901960784 .7294117647
05882 15 28 86 0 26 131 225 51 212 146 0 131 132 17 0 +0 0 -75e-5 0 0 -1 .020004
2423858952 0 1 0 50 132 145 0 115 122 212 0 +0 .0200042423858952 0 0 0 1 1 0 0 5
0 17 147 0 134 212 5 0 +0 .015875 -.0015 0 0 -1 -1 0 0 15 225 83 0 25 131 0 17 2
5 0 225 25 25 10 21 9 0 0 -83 1 208 0 83 3 206 .745098039215686 .737254901960784
 .729411764705882 83 3 201 .745098039215686 .737254901960784 .729411764705882 81
 1 182 184 194 128 0 172 226 189 227 83 3 196 .745098039215686 .737254901960784
 .729411764705882 81 1 226 181 194 165 0 183 228 182 229 83 3 227 .7450980392156
86 .737254901960784 .729411764705882 81 2 183 182 180 165 226 168 230 172 231 23
2 81 1 228 178 194 157 0 230 233 226 234 83 3 229 .745098039215686 .737254901960
784 .729411764705882 81 2 230 179 180 157 228 164 235 183 236 237 81 1 233 175 1
94 147 0 235 238 228 239 83 3 234 .745098039215686 .737254901960784 .72941176470
5882 81 2 235 176 180 147 233 152 150 230 240 241 81 1 238 172 194 144 0 150 242
 233 243 83 3 239 .745098039215686 .737254901960784 .729411764705882 81 2 150 17
3 180 144 238 145 244 235 245 246 81 1 242 169 194 146 0 244 247 238 248 83 3 24
3 .745098039215686 .737254901960784 .729411764705882 81 2 244 170 180 146 242 15
1 249 150 250 251 81 1 247 166 194 154 0 249 252 242 253 83 3 248 .7450980392156
86 .737254901960784 .729411764705882 14 154 30 254 ?255 146 256 4 161 -0 0 255 1
46 20 81 2 249 167 180 154 247 254 257 244 258 259 81 1 252 163 194 255 0 257 26
0 247 261 83 3 253 .745098039215686 .737254901960784 .729411764705882 14 255 25
 262 ?263 154 264 4 265 -0 0 263 154 20 81 2 257 164 180 255 252 262 266 249 267
 268 81 1 260 160 194 263 0 266 269 252 270 83 3 261 .745098039215686 .737254901
960784 .729411764705882 14 263 20 271 ?272 255 273 4 274 +0 0 272 255 20 81 2 26
6 161 180 263 260 271 275 257 276 277 81 1 269 157 194 272 0 275 278 260 279 83
 3 270 .745098039215686 .737254901960784 .729411764705882 14 272 15 280 ?281 263
 282 4 283 -0 0 281 263 20 81 2 275 158 180 272 269 280 284 266 285 286 81 1 278
 154 194 281 0 284 287 269 288 83 3 279 .745098039215686 .737254901960784 .72941
1764705882 14 281 10 289 ?80 272 81 4 290 -0 0 80 272 20 81 2 284 155 180 281 27
8 289 291 275 292 293 81 1 287 151 194 80 0 291 0 278 294 83 3 288 .745098039215
686 .737254901960784 .729411764705882 14 80 3 295 ?0 281 296 4 297 -0 0 0 281 20
 81 2 291 152 180 80 287 295 0 284 298 299 83 3 294 .745098039215686 .7372549019
60784 .729411764705882 81 1 295 153 123 80 291 0 0 289 300 83 4 298 .72944252070
442 0 .72944252070442 .72944252070442 82 1 299 1 81 1 289 156 123 281 284 0 295
 280 301 83 1 300 0 81 1 280 159 123 272 275 0 289 271 302 83 1 301 0 81 1 271 1
62 123 263 266 0 280 262 303 83 1 302 0 81 1 262 165 123 255 257 0 271 254 304 8
3 1 303 0 81 1 254 168 123 154 249 0 262 151 305 83 1 304 0 81 1 151 171 123 146
 244 0 254 145 306 83 1 305 0 83 1 306 0 15 296 7 0 74 80 77 54 297 131 0 80 0 2
90 0 +0 0 -.01791493450200695 0 0 1 .00500424238589519 .01 -1 0 0 54 290 132 0 2
81 297 283 0 +0 0 -.003037340932847765 0 0 1 -.0266763070031371 .045 -1 0 0 51 2
83 133 0 272 290 274 0 +0 0 -.01075 0 0 1 .0150042423858952 0 1 0 54 274 134 0 2
63 283 265 0 +0 0 -.03554330993484175 0 0 -1 .0176899186560443 .01 -1 0 0 54 265
 135 0 255 274 161 0 +0 0 -.1014697216947202 0 0 1 -.0812196505031228 .108867130
1865452 -1 0 0 54 161 136 0 154 265 156 0 +0 0 -.035520336443642 0 0 1 .01877783
132642855 .01 -1 0 0 17 74 0 296 74 74 72 307 82 0 307 +17 307 0 282 307 307 72
 74 82 0 0 -15 282 19 0 307 272 308 15 308 16 0 309 272 0 17 309 0 308 309 309 6
6 68 88 0 0 -17 68 0 169 68 68 66 309 88 0 309 +15 169 61 0 68 165 179 83 4 292
 .72944252070442 0 .72944252070442 .72944252070442 82 1 293 1 15 81 14 0 78 281
 310 15 310 11 0 311 281 0 17 311 0 310 311 311 69 71 84 0 0 -17 71 0 273 71 71
 69 311 84 0 311 +15 273 24 0 71 263 312 15 312 21 0 65 263 0 17 65 0 312 65 65
 63 313 90 0 313 +17 313 0 264 313 313 63 65 90 0 0 -15 264 29 0 313 255 314 15
 314 26 0 62 255 0 17 62 0 314 62 62 60 140 92 0 140 +83 4 285 .72944252070442 0
 .72944252070442 .72944252070442 82 1 286 1 83 4 276 .72944252070442 0 .72944252
070442 .72944252070442 82 1 277 1 83 4 267 .72944252070442 0 .72944252070442 .72
944252070442 82 1 268 1 83 4 258 .72944252070442 0 .72944252070442 .729442520704
42 82 1 259 1 15 256 34 0 56 154 315 17 56 0 256 56 56 54 160 96 0 160 +15 315 3
1 0 59 154 0 17 59 0 315 59 59 57 316 94 0 316 +17 316 0 155 316 316 57 59 94 0
 0 -15 155 41 0 316 146 317 15 317 38 0 318 146 0 17 318 0 317 318 318 51 53 98
 0 0 -17 53 0 158 53 53 51 318 98 0 318 +15 158 51 0 53 147 319 15 319 48 0 47 1
47 0 17 47 0 319 47 47 45 320 102 0 320 +17 320 0 166 320 320 45 47 102 0 0 -15
 166 56 0 320 157 321 15 321 53 0 44 157 0 17 44 0 321 44 44 42 322 104 0 322 +1
7 322 0 139 322 322 42 44 104 0 0 -15 139 89 0 322 134 24 15 24 88 0 21 134 0 17
 160 0 148 160 160 54 56 96 0 0 -83 4 250 .72944252070442 0 .72944252070442 .729
44252070442 82 1 251 1 83 4 245 .72944252070442 0 .72944252070442 .7294425207044
2 82 1 246 1 81 1 152 177 123 147 235 0 145 164 323 83 4 240 .72944252070442 0 .
72944252070442 .72944252070442 82 1 241 1 81 1 164 180 123 157 230 0 152 168 324
 83 1 323 0 83 1 324 0 83 4 236 .72944252070442 0 .72944252070442 .7294425207044
2 82 1 237 1 83 4 231 .72944252070442 0 .72944252070442 .72944252070442 82 1 232
 1 79 21 193 SDL/TYSA_REFLECTIVITY83 1 187 0 83 4 185 .72944252070442 0 .7294425
2070442 .72944252070442 82 1 186 1 79 21 181 SDL/TYSA_TRANSLUCENCY83 1 153 0 83
 1 138 0 83 1 127 0 15 116 78 0 29 115 0 17 29 0 116 29 29 23 26 22 0 0 -19 16 9
3 0 1 0 8 4 S0 74 20 14 6 0 0 325 12 218 136 133 2 0 0 0 0 0 0 0 0 0 0 0 0 0 0 8
1 1 325 149 326 1 0 12 0 0 327 81 1 12 150 328 1 325 2 0 0 329 80 1 328 123 330
 8041 0 0 0 0 3 5 0 0 0 TTTFFFFFFFFFFF2 83 1 329 0 79 23 330 SDL/TYSA_TRANSLUCEN
CY_280 1 326 194 331 8040 0 0 0 0 3 5 0 0 0 TTTFFFFFFFFFFF2 83 3 327 .5803921568
62745 .650980392156863 .72156862745098 79 17 331 SDL/TYSA_COLOUR_280 1 11 332 33
3 8017 0 0 0 0 0 0 0 0 0 TTTTTTTTTTTTTF3 84 6 13 Solid279 13 333 SDL/TYSA_NAME1
 0 
